<svg xmlns:dc="http://purl.org/dc/elements/1.1/" xmlns:cc="http://creativecommons.org/ns#" xmlns:rdf="http://www.w3.org/1999/02/22-rdf-syntax-ns#" xmlns:svg="http://www.w3.org/2000/svg" xmlns="http://www.w3.org/2000/svg" xmlns:sodipodi="http://sodipodi.sourceforge.net/DTD/sodipodi-0.dtd" xmlns:inkscape="http://www.inkscape.org/namespaces/inkscape" version="1.1" x="0px" y="0px" viewBox="0 0 64 80"><g transform="translate(0,-988.36218)"><path style="text-indent:0;text-transform:none;direction:ltr;block-progression:tb;baseline-shift:baseline;color:#000000;enable-background:accumulate;" d="m 36.781251,1011.2012 c -1.19703,0 -2.11998,0.7804 -2.84375,1.7813 -0.72377,1.001 -1.29387,2.277 -1.84375,3.5312 -0.54988,1.2542 -1.09642,2.4946 -1.65625,3.375 -0.55983,0.8804 -1.0875,1.3125 -1.65625,1.3125 -0.69545,0 -1.08913,-0.207 -1.4375,-0.5938 -0.348371,-0.3866 -0.619921,-0.9782 -0.875001,-1.5937 -0.25508,-0.6155 -0.48633,-1.264 -0.875,-1.8125 -0.38867,-0.5485 -1.00839,-1 -1.8125,-1 -0.45487,0 -0.85416,0.2074 -1.15625,0.5 -0.30209,0.2926 -0.52248,0.6771 -0.71875,1.0938 -0.39255,0.833 -0.6859,1.8657 -1.0625,2.875 -0.3766,1.0091 -0.8401,1.9954 -1.46875,2.6875 -0.62865,0.6922 -1.40595,1.125 -2.59375,1.125 l -14.0000008,0 a 0.50005,0.50005 0 1 0 0,1 l 14.0000008,0 c 1.44869,0 2.56669,-0.6132 3.34375,-1.4687 0.77706,-0.8555 1.26288,-1.9459 1.65625,-3.0001 0.39337,-1.0542 0.69452,-2.0979 1.03125,-2.8125 0.16836,-0.3573 0.33606,-0.6226 0.5,-0.7812 0.16394,-0.1588 0.28181,-0.2188 0.46875,-0.2188 0.4795,0 0.72433,0.2046 1,0.5938 0.27567,0.3889 0.51831,0.9905 0.78125,1.625 0.26294,0.6343 0.53494,1.2928 1.03125,1.8437 0.49631,0.5509 1.238651,0.9375 2.187501,0.9375 1.07555,0 1.86756,-0.7868 2.5,-1.7812 0.63244,-0.9946 1.17254,-2.2543 1.71875,-3.5 0.54621,-1.2459 1.11799,-2.4698 1.75,-3.3438 0.63201,-0.874 1.25695,-1.375 2.03125,-1.375 0.3528,0 0.66267,0.1331 1,0.4375 0.33733,0.3044 0.67193,0.7819 1,1.375 0.65614,1.1862 1.2788,2.8355 1.9375,4.5 0.6587,1.6645 1.37222,3.3447 2.3125,4.6564 0.94028,1.3114 2.15921,2.2812 3.75,2.2812 l 14.4375,0 a 0.50005,0.50005 0 1 0 0,-1 l -14.4375,0 c -1.19434,0 -2.0966,-0.6708 -2.9375,-1.8439 -0.8409,-1.1728 -1.56656,-2.7894 -2.21875,-4.4374 -0.65219,-1.6482 -1.25062,-3.3268 -1.96875,-4.625 -0.35906,-0.6492 -0.72179,-1.2048 -1.1875,-1.625 -0.46571,-0.4203 -1.05464,-0.7188 -1.6875,-0.7188 z" fill="#000000" fill-opacity="1" stroke="none" marker="none" visibility="visible" display="inline" overflow="visible"/></g><text x="0" y="79" fill="#000000" font-size="5px" font-weight="bold" font-family="'Helvetica Neue', Helvetica, Arial-Unicode, Arial, Sans-serif">Created by Chameleon Design</text><text x="0" y="84" fill="#000000" font-size="5px" font-weight="bold" font-family="'Helvetica Neue', Helvetica, Arial-Unicode, Arial, Sans-serif">from the Noun Project</text></svg>