<svg xmlns="http://www.w3.org/2000/svg" width="343.203" height="314.854" viewBox="0 0 343.203 314.854">
  <g id="Calque_2" data-name="Calque 2" transform="translate(1.503 1.473)">
    <g id="Calque_1" data-name="Calque 1" transform="translate(0 0)">
      <path id="Tracé_146" data-name="Tracé 146" d="M.554,48.632s2.29-2.1,39.7,1.145,65.657-.382,73.292-2.29S104,19.239,160.88,8.55c50.2-3.245,61.458,9.543,61.458,9.543S248.487,3.817,251.732.152c2.672-.674,2.927,1.082,4.2,1.909-.356,1.972-6.528,48.505-15.651,46.189-2.456,1.107,11.6,10.714,4.962,22.522,4.135,1.87,17.712-2.163,25.576,19.85,15.206-7.864,20.7-10.663,34.356-2.29a32.65,32.65,0,0,0,8.78-6.489c3.079-3.219,12.432-4.237,14.124-1.909s1.107,8.3,0,9.161,14.086-.611,11.834,6.489-3.6,5.815-6.108,4.962-4.873-1.565-6.871,1.145-7.635,6.642-9.543,6.489-.929,5.306.763,7.253-2.9,30.538-11.834,29.011c-5.7,3.079-13.462,5.688-17.178,2.29-5.7,1.107-.929,4.861-9.161,5.344s-24.66.916-26.339,3.054c-4.3,19.43,13.131,61.586,22.522,78.254,1.107,10.434-1.82,14.76-2.29,17.941s5.624,16.923,3.054,17.941.713,8.589-22.9,18.323-86.856,32.485-122.153,15.269-27.459-23.247-25.958-44.281c0-.42,2.239-16.542-1.527-14.506s-.585,3.168-3.817,3.054S80.361,235.679,80.336,233.77s-2.418-19.43.763-20.232-14.862-9.352-14.887-12.979,4.148-17.14,6.489-19.086,3.817,1.272,5.344-1.145S89.5,157.31,88.734,155.516s-1.5-3.932,0-6.108A109.344,109.344,0,0,1,99.04,137.956c-4.39-3.7-4.784-2.176-4.581-5.726s-1.807-26.912,2.252-33.592C85.6,95.7,44.135,90.431,31.055,78.788S3.71,54.93,1.28,52.449.554,48.632.554,48.632Z" transform="translate(0.027 -0.001)" fill="#5f8053" stroke="#fff" stroke-width="3" fill-rule="evenodd"/>
      <path id="Tracé_147" data-name="Tracé 147" d="M127,57.741c-.636-1.272,16.414-25.678,32.065-7.253C163.688,71.445,127.678,59.013,127,57.741Z" transform="translate(34.629 11.885)" fill="#3b3a40" fill-rule="evenodd" opacity="0.7"/>
      <path id="Tracé_148" data-name="Tracé 148" d="M176.832,43.619c1.145-3.817,9.416-19.315,14.887-5.726S176.323,44.255,176.832,43.619Z" transform="translate(48.206 8.829)" fill="#3b3a40" fill-rule="evenodd" opacity="0.7"/>
      <path id="Tracé_149" data-name="Tracé 149" d="M115.1,73.645s56.458,32.87,87.237,12.073c7.893,4.414,10.126,7.789,10.126,7.789l2.337,36.609s-11.684,13.592-20.252,15.968c1.947,1.584,4.7-.078,7.4,1.947-.117,10.5,9.736,134.751,9.736,134.751S138.069,313.743,93.3,269.54c-5.193-7.023.389-39.335.389-39.335s0-3.635-1.947-3.505-2.895,1.558-3.505,3.505c-5.478-.922-21.809-13.241-21.809-13.241L65.255,205.67l1.558-8.568,1.168-1.947-14.8-10.126s-2.181-2.207-.389-8.179,5.478-14.475,7.4-14.02,3.206.844,3.894-.389,10.385-22.978,11.294-24.925c-.74-3.064-1.766-4.868,0-7.01s10.126-11.684,10.126-11.684-4.738-2.6-4.673-3.505-.208-35.583,2.337-36.609S111.6,72.749,115.1,73.645Z" transform="translate(10.224 19.032)" fill="#9ec18a" stroke="#545358" stroke-width="2" fill-rule="evenodd" opacity="0.6"/>
      <path id="Tracé_170" data-name="Tracé 170" d="M-19601.3,1816.1c3.6-4.5,1.6,6.1,10.8,3.1s-1.6,11.4-5.9,9.4S-19604.9,1820.6-19601.3,1816.1Z" transform="translate(19894 -1702.442)" opacity="0.27"/>
    </g>
    <path id="Tracé_165" data-name="Tracé 165" d="M-19629.375,1825.125c.25-3.125-14.125,23.125-13.625,26.5s28.5,0,28.5,0S-19629.625,1828.25-19629.375,1825.125Z" transform="translate(19895 -1700.442)" opacity="0.27"/>
    <path id="Tracé_166" data-name="Tracé 166" d="M-19799.686,1836.5s43.623,19.333,39.359,38.667-5.578,48.333-5.578,48.333-6.723,4.167-9.512,5-5.41,7.833-5.41,7.833l-5.9,1.833-2.3,5.667-1.969,2.5h-4.428l-4.262,2.833-19.025-12.833V1923.5l2.131-7.833-4.92-4-5.246-4.5-4.92-5.5c.164,0,.984-18.833,6.4-19.333s6.559-3.433,6.559-3.433l8.855-21.8s-2.264-5.9,0-7.5S-19799.686,1836.5-19799.686,1836.5Z" transform="translate(19895.166 -1699.442)" fill="#5f8053" stroke="#fff" stroke-width="2"/>
    <path id="Tracé_167" data-name="Tracé 167" d="M-19770.666,1794.667s80.332,47,118.666-10C-19691.666,1818.667-19770.666,1794.667-19770.666,1794.667Z" transform="translate(19895 -1702.442)" opacity="0.27"/>
    <path id="Tracé_168" data-name="Tracé 168" d="M-19775,1782.5s-1.25-15.25-16-16.75-89.75-9.5-89.75-9.5,39.75,16.5,53.25,17,18.75-5.75,33,0S-19775,1782.5-19775,1782.5Z" transform="translate(19895 -1702.442)" opacity="0.27"/>
    <path id="Tracé_169" data-name="Tracé 169" d="M-19666.834,1726.333s18.5-12.5,22-17.5-10.664,25.333-15.332,24.167S-19666.834,1726.333-19666.834,1726.333Z" transform="translate(19895 -1702.442)" opacity="0.27"/>
    <path id="Tracé_171" data-name="Tracé 171" d="M-19761.5,1980.25s23.293,20.422,64.457,17.869C-19728.316,1992.375-19761.5,1980.25-19761.5,1980.25Z" transform="translate(19895 -1706.359)" opacity="0.27"/>
    <path id="Tracé_172" data-name="Tracé 172" d="M-19815.75,1919.875l35.5,12.978s1.75,2.556-.75,3.564-14.625-7.182-17.125-4.032-6.625-.126-12.5-3.276A9.581,9.581,0,0,1-19815.75,1919.875Z" transform="translate(19895 -1702.442)" opacity="0.27"/>
  </g>
</svg>
