<svg xmlns="http://www.w3.org/2000/svg" width="343.203" height="312.122" viewBox="0 0 343.203 312.122">
  <g id="Calque_2" data-name="Calque 2" transform="translate(1.534 1.473)">
    <g id="Calque_1" data-name="Calque 1" transform="translate(0 0)">
      <path id="Tracé_146" data-name="Tracé 146" d="M339.558,48.632s-2.29-2.1-39.7,1.145-65.657-.382-73.292-2.29S236.11,19.239,179.232,8.55c-50.2-3.245-61.458,9.543-61.458,9.543S91.625,3.817,88.381.152c-2.672-.674-2.927,1.082-4.2,1.909.356,1.972,6.528,48.505,15.651,46.189,2.456,1.107-11.6,10.714-4.962,22.522-4.135,1.87-17.712-2.163-25.576,19.85-15.206-7.864-20.7-10.663-34.356-2.29a32.65,32.65,0,0,1-8.78-6.489c-3.079-3.219-12.432-4.237-14.124-1.909s-1.107,8.3,0,9.161S-2.051,88.484.2,95.585s3.6,5.815,6.108,4.962,4.873-1.565,6.871,1.145,7.635,6.642,9.543,6.489.929,5.306-.763,7.253,2.9,30.538,11.834,29.011c5.7,3.079,13.462,5.688,17.178,2.29,5.7,1.107.929,4.861,9.161,5.344s24.66.916,26.339,3.054c4.3,19.43-13.131,61.586-22.522,78.254-1.107,10.434,1.82,14.76,2.29,17.941s-5.624,16.923-3.054,17.941-.713,8.589,22.9,18.323,86.856,32.485,122.153,15.269S235.7,279.616,234.2,258.583c0-.42-2.239-16.542,1.527-14.506s.585,3.168,3.817,3.054,20.206-11.452,20.232-13.361,2.418-19.43-.763-20.232,14.862-9.352,14.887-12.979-4.148-17.14-6.489-19.086-3.817,1.272-5.344-1.145-11.452-23.018-10.688-24.812,1.5-3.932,0-6.108a109.344,109.344,0,0,0-10.307-11.452c4.39-3.7,4.784-2.176,4.581-5.726s1.807-26.912-2.252-33.592c11.108-2.939,52.577-8.207,65.657-19.85S336.4,54.93,338.833,52.449,339.558,48.632,339.558,48.632Z" transform="translate(0.027 -0.001)" fill="#3b3a40" stroke="#fff" stroke-width="3" fill-rule="evenodd"/>
      <path id="Tracé_147" data-name="Tracé 147" d="M159.461,57.741c.636-1.272-16.414-25.678-32.065-7.253C122.777,71.445,158.786,59.013,159.461,57.741Z" transform="translate(19.073 11.885)" fill="#819874" fill-rule="evenodd" opacity="0.7"/>
      <path id="Tracé_148" data-name="Tracé 148" d="M192.625,43.619C191.48,39.8,183.21,24.3,177.738,37.893S193.134,44.255,192.625,43.619Z" transform="translate(-77.497 8.829)" fill="#819874" fill-rule="evenodd" opacity="0.7"/>
      <path id="Tracé_149" data-name="Tracé 149" d="M151.786,73.645s-56.458,32.87-87.237,12.073c-7.893,4.414-10.126,7.789-10.126,7.789l-2.337,36.609s11.684,13.592,20.252,15.968c-1.947,1.584-4.7-.078-7.4,1.947.117,10.5-9.736,134.751-9.736,134.751s73.62,30.962,118.394-13.241c5.193-7.023-.389-39.335-.389-39.335s0-3.635,1.947-3.505,2.895,1.558,3.505,3.505c5.478-.922,21.809-13.241,21.809-13.241l1.168-11.294-1.558-8.568-1.168-1.947,14.8-10.126s2.181-2.207.389-8.179-5.478-14.475-7.4-14.02-3.206.844-3.894-.389-10.385-22.978-11.294-24.925c.74-3.064,1.766-4.868,0-7.01s-10.126-11.684-10.126-11.684,4.738-2.6,4.673-3.505.208-35.583-2.337-36.609S155.291,72.749,151.786,73.645Z" transform="translate(61.052 16.032)" fill="#545358" stroke="#86a77a" stroke-width="2" fill-rule="evenodd"/>
      <path id="Tracé_170" data-name="Tracé 170" d="M-19588.258,1816.1c-3.6-4.5-1.6,6.1-10.8,3.1s1.6,11.4,5.9,9.4S-19584.656,1820.6-19588.258,1816.1Z" transform="translate(19635.725 -1702.442)" opacity="0.27"/>
    </g>
    <path id="Tracé_165" data-name="Tracé 165" d="M-19628.141,1825.125c-.25-3.125,14.125,23.125,13.625,26.5s-28.5,0-28.5,0S-19627.891,1828.25-19628.141,1825.125Z" transform="translate(19702.682 -1700.442)" opacity="0.27"/>
    <path id="Tracé_166" data-name="Tracé 166" d="M-19792.014,1836.5s-43.623,19.333-39.359,38.667,5.578,48.333,5.578,48.333,6.723,4.167,9.512,5,5.41,7.833,5.41,7.833l5.9,1.833,2.3,5.667,1.969,2.5h4.428l4.262,2.833,19.025-12.833V1923.5l-2.131-7.833,4.92-4,5.246-4.5,4.92-5.5c-.164,0-.984-18.833-6.4-19.333s-6.559-3.433-6.559-3.433l-8.855-21.8s2.264-5.9,0-7.5S-19792.014,1836.5-19792.014,1836.5Z" transform="translate(20036.699 -1699.442)" fill="#3b3a40" stroke="#fff" stroke-width="3"/>
    <path id="Tracé_167" data-name="Tracé 167" d="M-19652,1794.667s-80.332,47-118.666-10C-19731,1818.667-19652,1794.667-19652,1794.667Z" transform="translate(19866.83 -1705.609)" opacity="0.27"/>
    <path id="Tracé_168" data-name="Tracé 168" d="M-19880.75,1782.5s1.25-15.25,16-16.75,89.75-9.5,89.75-9.5-39.75,16.5-53.25,17-18.75-5.75-33,0S-19880.75,1782.5-19880.75,1782.5Z" transform="translate(20100.916 -1702.442)" opacity="0.27"/>
    <path id="Tracé_169" data-name="Tracé 169" d="M-19644.283,1726.333s-18.5-12.5-22-17.5,10.664,25.333,15.332,24.167S-19644.283,1726.333-19644.283,1726.333Z" transform="translate(19756.283 -1702.442)" opacity="0.27"/>
    <g id="Groupe_51" data-name="Groupe 51" transform="translate(142.674 217.417)">
      <path id="Tracé_173" data-name="Tracé 173" d="M-19697.043,1980.25s-23.293,20.422-64.457,17.869C-19730.227,1992.375-19697.043,1980.25-19697.043,1980.25Z" transform="translate(19761.5 -1923.792)" opacity="0.37"/>
      <path id="Tracé_174" data-name="Tracé 174" d="M-19779.687,1919.875l-35.5,12.978s-1.75,2.556.75,3.564,14.625-7.182,17.125-4.032,6.625-.126,12.5-3.276A9.581,9.581,0,0,0-19779.687,1919.875Z" transform="translate(19898.395 -1919.875)" opacity="0.27"/>
    </g>
  </g>
</svg>
